<mxfile host="app.diagrams.net" modified="2023-11-25T09:34:24.311Z" agent="Mozilla/5.0 (Windows NT 10.0; Win64; x64) AppleWebKit/537.36 (KHTML, like Gecko) Chrome/119.0.0.0 Safari/537.36 Edg/119.0.0.0" etag="nkm5AS9tUtoMR9EDROpM" version="21.7.5" type="github">
  <diagram id="C5RBs43oDa-KdzZeNtuy" name="Page-1">
    <mxGraphModel dx="1213" dy="780" grid="1" gridSize="10" guides="1" tooltips="1" connect="1" arrows="1" fold="1" page="1" pageScale="1" pageWidth="827" pageHeight="1169" math="0" shadow="0">
      <root>
        <mxCell id="WIyWlLk6GJQsqaUBKTNV-0" />
        <mxCell id="WIyWlLk6GJQsqaUBKTNV-1" parent="WIyWlLk6GJQsqaUBKTNV-0" />
        <mxCell id="pH6TI1Z_hrTmqN3suIDE-2" value="" style="edgeStyle=orthogonalEdgeStyle;rounded=0;orthogonalLoop=1;jettySize=auto;html=1;" edge="1" parent="WIyWlLk6GJQsqaUBKTNV-1" source="pH6TI1Z_hrTmqN3suIDE-0" target="pH6TI1Z_hrTmqN3suIDE-1">
          <mxGeometry relative="1" as="geometry" />
        </mxCell>
        <mxCell id="pH6TI1Z_hrTmqN3suIDE-0" value="&lt;font style=&quot;font-size: 15px;&quot;&gt;读入模糊图像&lt;/font&gt;" style="shape=parallelogram;perimeter=parallelogramPerimeter;whiteSpace=wrap;html=1;fixedSize=1;" vertex="1" parent="WIyWlLk6GJQsqaUBKTNV-1">
          <mxGeometry x="354" y="30" width="120" height="60" as="geometry" />
        </mxCell>
        <mxCell id="pH6TI1Z_hrTmqN3suIDE-4" value="" style="edgeStyle=orthogonalEdgeStyle;rounded=0;orthogonalLoop=1;jettySize=auto;html=1;" edge="1" parent="WIyWlLk6GJQsqaUBKTNV-1" source="pH6TI1Z_hrTmqN3suIDE-1" target="pH6TI1Z_hrTmqN3suIDE-3">
          <mxGeometry relative="1" as="geometry" />
        </mxCell>
        <mxCell id="pH6TI1Z_hrTmqN3suIDE-1" value="&lt;font style=&quot;font-size: 15px;&quot;&gt;构建图像金字塔&lt;/font&gt;" style="whiteSpace=wrap;html=1;" vertex="1" parent="WIyWlLk6GJQsqaUBKTNV-1">
          <mxGeometry x="354" y="120" width="120" height="60" as="geometry" />
        </mxCell>
        <mxCell id="pH6TI1Z_hrTmqN3suIDE-7" value="" style="edgeStyle=orthogonalEdgeStyle;rounded=0;orthogonalLoop=1;jettySize=auto;html=1;" edge="1" parent="WIyWlLk6GJQsqaUBKTNV-1" source="pH6TI1Z_hrTmqN3suIDE-3" target="pH6TI1Z_hrTmqN3suIDE-6">
          <mxGeometry relative="1" as="geometry" />
        </mxCell>
        <mxCell id="pH6TI1Z_hrTmqN3suIDE-3" value="&lt;font style=&quot;font-size: 15px;&quot;&gt;初始化清晰图像，将第一层的模糊图像作为对清晰图像的初始估计&lt;/font&gt;" style="whiteSpace=wrap;html=1;" vertex="1" parent="WIyWlLk6GJQsqaUBKTNV-1">
          <mxGeometry x="319" y="220" width="190" height="60" as="geometry" />
        </mxCell>
        <mxCell id="pH6TI1Z_hrTmqN3suIDE-9" value="" style="edgeStyle=orthogonalEdgeStyle;rounded=0;orthogonalLoop=1;jettySize=auto;html=1;" edge="1" parent="WIyWlLk6GJQsqaUBKTNV-1" source="pH6TI1Z_hrTmqN3suIDE-6" target="pH6TI1Z_hrTmqN3suIDE-8">
          <mxGeometry relative="1" as="geometry" />
        </mxCell>
        <mxCell id="pH6TI1Z_hrTmqN3suIDE-11" value="" style="edgeStyle=orthogonalEdgeStyle;rounded=0;orthogonalLoop=1;jettySize=auto;html=1;" edge="1" parent="WIyWlLk6GJQsqaUBKTNV-1" source="pH6TI1Z_hrTmqN3suIDE-6" target="pH6TI1Z_hrTmqN3suIDE-10">
          <mxGeometry relative="1" as="geometry" />
        </mxCell>
        <mxCell id="pH6TI1Z_hrTmqN3suIDE-6" value="&lt;font style=&quot;font-size: 15px;&quot;&gt;检测异常点&lt;/font&gt;" style="whiteSpace=wrap;html=1;" vertex="1" parent="WIyWlLk6GJQsqaUBKTNV-1">
          <mxGeometry x="354" y="360" width="120" height="60" as="geometry" />
        </mxCell>
        <mxCell id="pH6TI1Z_hrTmqN3suIDE-13" style="edgeStyle=orthogonalEdgeStyle;rounded=0;orthogonalLoop=1;jettySize=auto;html=1;exitX=0.5;exitY=1;exitDx=0;exitDy=0;entryX=1;entryY=0.5;entryDx=0;entryDy=0;" edge="1" parent="WIyWlLk6GJQsqaUBKTNV-1" source="pH6TI1Z_hrTmqN3suIDE-8" target="pH6TI1Z_hrTmqN3suIDE-10">
          <mxGeometry relative="1" as="geometry" />
        </mxCell>
        <mxCell id="pH6TI1Z_hrTmqN3suIDE-16" style="edgeStyle=orthogonalEdgeStyle;rounded=0;orthogonalLoop=1;jettySize=auto;html=1;exitX=0.5;exitY=1;exitDx=0;exitDy=0;entryX=1;entryY=0.5;entryDx=0;entryDy=0;" edge="1" parent="WIyWlLk6GJQsqaUBKTNV-1" source="pH6TI1Z_hrTmqN3suIDE-8" target="pH6TI1Z_hrTmqN3suIDE-14">
          <mxGeometry relative="1" as="geometry" />
        </mxCell>
        <mxCell id="pH6TI1Z_hrTmqN3suIDE-8" value="&lt;font style=&quot;font-size: 15px;&quot;&gt;计算权重矩阵&lt;/font&gt;" style="whiteSpace=wrap;html=1;" vertex="1" parent="WIyWlLk6GJQsqaUBKTNV-1">
          <mxGeometry x="530" y="430" width="120" height="60" as="geometry" />
        </mxCell>
        <mxCell id="pH6TI1Z_hrTmqN3suIDE-15" value="" style="edgeStyle=orthogonalEdgeStyle;rounded=0;orthogonalLoop=1;jettySize=auto;html=1;" edge="1" parent="WIyWlLk6GJQsqaUBKTNV-1" source="pH6TI1Z_hrTmqN3suIDE-10" target="pH6TI1Z_hrTmqN3suIDE-14">
          <mxGeometry relative="1" as="geometry" />
        </mxCell>
        <mxCell id="pH6TI1Z_hrTmqN3suIDE-10" value="&lt;font style=&quot;font-size: 15px;&quot;&gt;估计清晰图像&lt;/font&gt;" style="whiteSpace=wrap;html=1;" vertex="1" parent="WIyWlLk6GJQsqaUBKTNV-1">
          <mxGeometry x="354" y="480" width="120" height="60" as="geometry" />
        </mxCell>
        <mxCell id="pH6TI1Z_hrTmqN3suIDE-18" value="" style="edgeStyle=orthogonalEdgeStyle;rounded=0;orthogonalLoop=1;jettySize=auto;html=1;" edge="1" parent="WIyWlLk6GJQsqaUBKTNV-1" source="pH6TI1Z_hrTmqN3suIDE-14">
          <mxGeometry relative="1" as="geometry">
            <mxPoint x="414" y="720" as="targetPoint" />
          </mxGeometry>
        </mxCell>
        <mxCell id="pH6TI1Z_hrTmqN3suIDE-14" value="&lt;font style=&quot;font-size: 15px;&quot;&gt;估计模糊核&lt;/font&gt;" style="whiteSpace=wrap;html=1;" vertex="1" parent="WIyWlLk6GJQsqaUBKTNV-1">
          <mxGeometry x="354" y="590" width="120" height="60" as="geometry" />
        </mxCell>
        <mxCell id="pH6TI1Z_hrTmqN3suIDE-25" style="edgeStyle=orthogonalEdgeStyle;rounded=0;orthogonalLoop=1;jettySize=auto;html=1;exitX=1;exitY=0.5;exitDx=0;exitDy=0;exitPerimeter=0;" edge="1" parent="WIyWlLk6GJQsqaUBKTNV-1" source="pH6TI1Z_hrTmqN3suIDE-24">
          <mxGeometry relative="1" as="geometry">
            <mxPoint x="410" y="340" as="targetPoint" />
            <Array as="points">
              <mxPoint x="491" y="750" />
              <mxPoint x="680" y="750" />
              <mxPoint x="680" y="340" />
            </Array>
          </mxGeometry>
        </mxCell>
        <mxCell id="pH6TI1Z_hrTmqN3suIDE-28" value="" style="edgeStyle=orthogonalEdgeStyle;rounded=0;orthogonalLoop=1;jettySize=auto;html=1;" edge="1" parent="WIyWlLk6GJQsqaUBKTNV-1" source="pH6TI1Z_hrTmqN3suIDE-24" target="pH6TI1Z_hrTmqN3suIDE-27">
          <mxGeometry relative="1" as="geometry" />
        </mxCell>
        <mxCell id="pH6TI1Z_hrTmqN3suIDE-24" value="&lt;font style=&quot;font-size: 15px;&quot;&gt;是否到达迭代次数&lt;/font&gt;" style="strokeWidth=2;html=1;shape=mxgraph.flowchart.decision;whiteSpace=wrap;" vertex="1" parent="WIyWlLk6GJQsqaUBKTNV-1">
          <mxGeometry x="337" y="700" width="154" height="100" as="geometry" />
        </mxCell>
        <mxCell id="pH6TI1Z_hrTmqN3suIDE-26" value="&lt;font style=&quot;font-size: 15px;&quot;&gt;N&lt;/font&gt;" style="text;html=1;align=center;verticalAlign=middle;resizable=0;points=[];autosize=1;strokeColor=none;fillColor=none;" vertex="1" parent="WIyWlLk6GJQsqaUBKTNV-1">
          <mxGeometry x="491" y="720" width="30" height="30" as="geometry" />
        </mxCell>
        <mxCell id="pH6TI1Z_hrTmqN3suIDE-30" style="edgeStyle=orthogonalEdgeStyle;rounded=0;orthogonalLoop=1;jettySize=auto;html=1;" edge="1" parent="WIyWlLk6GJQsqaUBKTNV-1" source="pH6TI1Z_hrTmqN3suIDE-27">
          <mxGeometry relative="1" as="geometry">
            <mxPoint x="414" y="340" as="targetPoint" />
            <mxPoint x="341" y="900" as="sourcePoint" />
            <Array as="points">
              <mxPoint x="240" y="900" />
              <mxPoint x="240" y="340" />
            </Array>
          </mxGeometry>
        </mxCell>
        <mxCell id="pH6TI1Z_hrTmqN3suIDE-33" value="" style="edgeStyle=orthogonalEdgeStyle;rounded=0;orthogonalLoop=1;jettySize=auto;html=1;" edge="1" parent="WIyWlLk6GJQsqaUBKTNV-1" source="pH6TI1Z_hrTmqN3suIDE-27" target="pH6TI1Z_hrTmqN3suIDE-32">
          <mxGeometry relative="1" as="geometry" />
        </mxCell>
        <mxCell id="pH6TI1Z_hrTmqN3suIDE-27" value="&lt;span style=&quot;font-size: 15px;&quot;&gt;是否到达金字塔顶&lt;/span&gt;" style="strokeWidth=2;html=1;shape=mxgraph.flowchart.decision;whiteSpace=wrap;" vertex="1" parent="WIyWlLk6GJQsqaUBKTNV-1">
          <mxGeometry x="337" y="850" width="154" height="100" as="geometry" />
        </mxCell>
        <mxCell id="pH6TI1Z_hrTmqN3suIDE-29" value="&lt;span style=&quot;font-size: 15px;&quot;&gt;Y&lt;/span&gt;" style="text;html=1;align=center;verticalAlign=middle;resizable=0;points=[];autosize=1;strokeColor=none;fillColor=none;" vertex="1" parent="WIyWlLk6GJQsqaUBKTNV-1">
          <mxGeometry x="420" y="810" width="30" height="30" as="geometry" />
        </mxCell>
        <mxCell id="pH6TI1Z_hrTmqN3suIDE-31" value="&lt;font style=&quot;font-size: 15px;&quot;&gt;N&lt;/font&gt;" style="text;html=1;align=center;verticalAlign=middle;resizable=0;points=[];autosize=1;strokeColor=none;fillColor=none;" vertex="1" parent="WIyWlLk6GJQsqaUBKTNV-1">
          <mxGeometry x="300" y="870" width="30" height="30" as="geometry" />
        </mxCell>
        <mxCell id="pH6TI1Z_hrTmqN3suIDE-35" value="" style="edgeStyle=orthogonalEdgeStyle;rounded=0;orthogonalLoop=1;jettySize=auto;html=1;" edge="1" parent="WIyWlLk6GJQsqaUBKTNV-1" source="pH6TI1Z_hrTmqN3suIDE-32" target="pH6TI1Z_hrTmqN3suIDE-34">
          <mxGeometry relative="1" as="geometry" />
        </mxCell>
        <mxCell id="pH6TI1Z_hrTmqN3suIDE-32" value="&lt;font style=&quot;font-size: 15px;&quot;&gt;输出估计的模糊核&lt;/font&gt;" style="whiteSpace=wrap;html=1;strokeWidth=2;" vertex="1" parent="WIyWlLk6GJQsqaUBKTNV-1">
          <mxGeometry x="354" y="990" width="120" height="60" as="geometry" />
        </mxCell>
        <mxCell id="pH6TI1Z_hrTmqN3suIDE-37" value="" style="edgeStyle=orthogonalEdgeStyle;rounded=0;orthogonalLoop=1;jettySize=auto;html=1;" edge="1" parent="WIyWlLk6GJQsqaUBKTNV-1" source="pH6TI1Z_hrTmqN3suIDE-34" target="pH6TI1Z_hrTmqN3suIDE-36">
          <mxGeometry relative="1" as="geometry" />
        </mxCell>
        <mxCell id="pH6TI1Z_hrTmqN3suIDE-34" value="&lt;font style=&quot;font-size: 15px;&quot;&gt;利用非盲复原估计清晰图像&lt;/font&gt;" style="whiteSpace=wrap;html=1;strokeWidth=2;" vertex="1" parent="WIyWlLk6GJQsqaUBKTNV-1">
          <mxGeometry x="354" y="1090" width="120" height="60" as="geometry" />
        </mxCell>
        <mxCell id="pH6TI1Z_hrTmqN3suIDE-36" value="&lt;font style=&quot;font-size: 15px;&quot;&gt;输出估计的清晰图像&lt;/font&gt;" style="whiteSpace=wrap;html=1;strokeWidth=2;" vertex="1" parent="WIyWlLk6GJQsqaUBKTNV-1">
          <mxGeometry x="354" y="1190" width="120" height="60" as="geometry" />
        </mxCell>
      </root>
    </mxGraphModel>
  </diagram>
</mxfile>
